<svg width="28" height="26" viewBox="0 0 28 26" fill="none" xmlns="http://www.w3.org/2000/svg">
<path d="M5.80001 22L2.73334 25.0667C2.31112 25.4889 1.82757 25.5835 1.28268 25.3507C0.737788 25.1178 0.465788 24.7009 0.466677 24.1V3.33332C0.466677 2.59999 0.72801 1.97243 1.25068 1.45066C1.77334 0.928879 2.4009 0.667545 3.13334 0.666656H24.4667C25.2 0.666656 25.828 0.92799 26.3507 1.45066C26.8733 1.97332 27.1342 2.60088 27.1333 3.33332V19.3333C27.1333 20.0667 26.8725 20.6947 26.3507 21.2173C25.8289 21.74 25.2009 22.0009 24.4667 22H5.80001ZM7.13334 16.6667H15.1333C15.5111 16.6667 15.828 16.5387 16.084 16.2827C16.34 16.0267 16.4676 15.7102 16.4667 15.3333C16.4658 14.9564 16.3378 14.64 16.0827 14.384C15.8276 14.128 15.5111 14 15.1333 14H7.13334C6.75557 14 6.43912 14.128 6.18401 14.384C5.9289 14.64 5.8009 14.9564 5.80001 15.3333C5.79912 15.7102 5.92712 16.0271 6.18401 16.284C6.4409 16.5409 6.75734 16.6684 7.13334 16.6667ZM7.13334 12.6667H20.4667C20.8445 12.6667 21.1613 12.5387 21.4173 12.2827C21.6733 12.0267 21.8009 11.7102 21.8 11.3333C21.7991 10.9564 21.6711 10.64 21.416 10.384C21.1609 10.128 20.8445 9.99999 20.4667 9.99999H7.13334C6.75557 9.99999 6.43912 10.128 6.18401 10.384C5.9289 10.64 5.8009 10.9564 5.80001 11.3333C5.79912 11.7102 5.92712 12.0271 6.18401 12.284C6.4409 12.5409 6.75734 12.6684 7.13334 12.6667ZM7.13334 8.66666H20.4667C20.8445 8.66666 21.1613 8.53866 21.4173 8.28266C21.6733 8.02666 21.8009 7.71021 21.8 7.33332C21.7991 6.95643 21.6711 6.63999 21.416 6.38399C21.1609 6.12799 20.8445 5.99999 20.4667 5.99999H7.13334C6.75557 5.99999 6.43912 6.12799 6.18401 6.38399C5.9289 6.63999 5.8009 6.95643 5.80001 7.33332C5.79912 7.71021 5.92712 8.0271 6.18401 8.28399C6.4409 8.54088 6.75734 8.66843 7.13334 8.66666Z" fill="#84CC16"/>
</svg>
